<?xml version="1.0" encoding="iso-8859-1"?>
<!-- Generator: Adobe Illustrator 19.0.0, SVG Export Plug-In . SVG Version: 6.00 Build 0)  -->
<svg version="1.1" id="Capa_1" xmlns="http://www.w3.org/2000/svg" xmlns:xlink="http://www.w3.org/1999/xlink" x="0px" y="0px"
	width="30px" height="30px" viewBox="0 0 512.004 512.004" style="enable-background:new 0 0 512.004 512.004;" xml:space="preserve">
<rect x="349.519" y="1.921" transform="matrix(-0.9176 -0.3976 0.3976 -0.9176 678.7263 242.6686)" style="fill:#FF9900;" width="30.003" height="98.101"/>
<path style="fill:#D1E7F8;" d="M390.011,191.982H121.993V164.98c0-63.415,51.593-115.008,115.008-115.008h38.003
	c63.415,0,115.008,51.593,115.008,115.008V191.982z"/>
<path style="fill:#B3D8F4;" d="M275.003,49.972h-19.001v142.01h134.009V164.98C390.011,101.564,338.419,49.972,275.003,49.972z"/>
<path style="fill:#93D7F4;" d="M368.901,512.004H143.103l-22.31-290.02H391.21L368.901,512.004z"/>
<polygon style="fill:#4BBAED;" points="391.21,221.984 256.002,221.984 256.002,512.004 368.901,512.004 "/>
<path style="fill:#FF4E1A;" d="M386.011,251.986H125.993c-24.815,0-45.003-20.188-45.003-45.003s20.188-45.003,45.003-45.003
	h260.018c24.815,0,45.003,20.188,45.003,45.003S410.826,251.986,386.011,251.986z"/>
<path style="fill:#FD0E22;" d="M386.011,161.979H256.002v90.006h130.009c24.815,0,45.003-20.188,45.003-45.003
	S410.826,161.979,386.011,161.979z"/>
<g>
</g>
<g>
</g>
<g>
</g>
<g>
</g>
<g>
</g>
<g>
</g>
<g>
</g>
<g>
</g>
<g>
</g>
<g>
</g>
<g>
</g>
<g>
</g>
<g>
</g>
<g>
</g>
<g>
</g>
</svg>
