<?xml version="1.0" encoding="iso-8859-1"?>
<!-- Generator: Adobe Illustrator 19.0.0, SVG Export Plug-In . SVG Version: 6.00 Build 0)  -->
<svg version="1.1" id="Capa_1" xmlns="http://www.w3.org/2000/svg" xmlns:xlink="http://www.w3.org/1999/xlink" x="0px" y="0px"
	width="30px" height="30px" viewBox="0 0 512 512" style="enable-background:new 0 0 512 512;" xml:space="preserve">
<path style="fill:#BD6F06;" d="M124.272,498.208L13.793,387.729c-18.391-18.391-18.391-48.315,0-66.705l307.23-307.23
	c18.391-18.391,48.315-18.391,66.705,0l110.479,110.479c18.391,18.391,18.391,48.315,0,66.705l-307.23,307.229
	C172.587,516.597,142.662,516.597,124.272,498.208z"/>
<path style="fill:#FF5619;" d="M238.594,96.222L13.793,321.023c-18.391,18.391-18.391,48.315,0,66.705l110.479,110.479
	c18.391,18.391,48.315,18.391,66.705,0l224.801-224.801L238.594,96.222z"/>
<g>
	<path style="fill:#8F4F0B;" d="M498.208,124.272l-55.239-55.239L327.186,184.814l88.592,88.592l82.429-82.429
		C516.597,172.587,516.597,142.662,498.208,124.272z"/>
	<path style="fill:#8F4F0B;" d="M376.406,234.032l-21.871-21.871l54.537-54.537l-54.695-54.695l-54.537,54.537l-21.871-21.871
		l65.472-65.473c6.04-6.04,15.832-6.04,21.871,0l76.566,76.566c6.04,6.04,6.04,15.832,0,21.871L376.406,234.032z"/>
</g>
<path style="fill:#EDF6FF;" d="M399.211,361.746l20.747-96.01c1.11-5.137-0.465-10.487-4.181-14.203L260.466,96.222
	c-4.12-4.12-10.205-5.575-15.743-3.764l-81.417,26.629c-11.662,3.815-19.949,13.739-21.625,25.901
	c-1.672,12.135,3.608,23.904,13.774,30.713c25.219,16.888,69.193,51.024,80.378,89.883c7.237,25.15,22.192,46.497,39.853,64.159
	c25.644,25.643,56.992,43.514,78.699,53.963c8.811,4.24,18.906,4.207,27.699-0.091C390.897,379.304,397.14,371.334,399.211,361.746z
	"/>
<path style="fill:#592B03;" d="M441.878,146.689l-38.284-38.284l-21.871,21.871l27.347,27.347l-54.537,54.537l21.871,21.871
	l65.472-65.473C447.918,162.521,447.918,152.728,441.878,146.689z"/>
<path style="fill:#B53312;" d="M69.032,442.967l55.239,55.239c18.391,18.391,48.315,18.391,66.705,0l224.801-224.801l-88.592-88.592
	L69.032,442.967z"/>
<path style="fill:#D6E9FF;" d="M419.959,265.737c1.11-5.137-0.465-10.487-4.181-14.203l-77.656-77.656l-99.677,99.677
	c7.888,21.718,21.478,40.424,37.24,56.187c25.644,25.643,56.992,43.514,78.699,53.963c8.811,4.24,18.906,4.207,27.699-0.091
	c8.813-4.308,15.057-12.279,17.129-21.866L419.959,265.737z"/>
<g>
</g>
<g>
</g>
<g>
</g>
<g>
</g>
<g>
</g>
<g>
</g>
<g>
</g>
<g>
</g>
<g>
</g>
<g>
</g>
<g>
</g>
<g>
</g>
<g>
</g>
<g>
</g>
<g>
</g>
</svg>
